HIERARCHY
ROOT Hips
{
    OFFSET 0.000000 0.000000 0.000000
    CHANNELS 6 Xposition Yposition Zposition Zrotation Xrotation Yrotation
    JOINT Spine
    {
        OFFSET -0.000000 14.517291 0.000000
        CHANNELS 3 Zrotation Xrotation Yrotation
        JOINT Spine1
        {
            OFFSET -0.000000 37.558300 0.000000
            CHANNELS 3 Zrotation Xrotation Yrotation
            JOINT Neck
            {
                OFFSET -0.000000 37.404057 3.400369
                CHANNELS 3 Zrotation Xrotation Yrotation
                JOINT Head
                {
                    OFFSET -0.000000 24.785618 -3.540803
                    CHANNELS 3 Zrotation Xrotation Yrotation
                    End Site
                    {
                        OFFSET -0.000000 35.408028 0.000000
                    }
                }
            }
            JOINT LeftShoulder
            {
                OFFSET 6.992933 33.973492 -0.192664
                CHANNELS 3 Zrotation Xrotation Yrotation
                JOINT LeftArm
                {
                    OFFSET 21.527611 0.000000 0.000000
                    CHANNELS 3 Zrotation Xrotation Yrotation
                    JOINT LeftForeArm
                    {
                        OFFSET 56.353916 0.000000 0.000000
                        CHANNELS 3 Zrotation Xrotation Yrotation
                        JOINT LeftHand
                        {
                            OFFSET 47.774071 0.000000 0.000000
                            CHANNELS 3 Zrotation Xrotation Yrotation
                            End Site
                            {
                                OFFSET 26.556021 0.000000 0.000000
                            }
                        }
                    }
                }
            }
            JOINT RightShoulder
            {
                OFFSET -7.065357 33.973492 -0.192664
                CHANNELS 3 Zrotation Xrotation Yrotation
                JOINT RightArm
                {
                    OFFSET -21.527611 0.000000 0.000000
                    CHANNELS 3 Zrotation Xrotation Yrotation
                    JOINT RightForeArm
                    {
                        OFFSET -56.353916 0.000000 0.000000
                        CHANNELS 3 Zrotation Xrotation Yrotation
                        JOINT RightHand
                        {
                            OFFSET -47.774071 0.000000 0.000000
                            CHANNELS 3 Zrotation Xrotation Yrotation
                            End Site
                            {
                                OFFSET -26.556021 0.000000 0.000000
                            }
                        }
                    }
                }
            }
        }
    }
    JOINT LeftUpLeg
    {
        OFFSET 17.704014 0.000000 0.000000
        CHANNELS 3 Zrotation Xrotation Yrotation
        JOINT LeftLeg
        {
            OFFSET -0.000000 -81.181816 0.000000
            CHANNELS 3 Zrotation Xrotation Yrotation
            JOINT LeftFoot
            {
                OFFSET -0.000000 -62.821102 0.000000
                CHANNELS 3 Zrotation Xrotation Yrotation
                JOINT LeftToeBase
                {
                    OFFSET -0.000000 -11.507608 26.556021
                    CHANNELS 3 Zrotation Xrotation Yrotation
                    End Site
                    {
                        OFFSET -0.000000 0.000000 7.081605
                    }
                }
            }
        }
    }
    JOINT RightUpLeg
    {
        OFFSET -17.704014 0.000000 0.000000
        CHANNELS 3 Zrotation Xrotation Yrotation
        JOINT RightLeg
        {
            OFFSET -0.000000 -81.181816 0.000000
            CHANNELS 3 Zrotation Xrotation Yrotation
            JOINT RightFoot
            {
                OFFSET -0.000000 -62.821102 0.000000
                CHANNELS 3 Zrotation Xrotation Yrotation
                JOINT RightToeBase
                {
                    OFFSET -0.000000 -11.507608 26.556021
                    CHANNELS 3 Zrotation Xrotation Yrotation
                    End Site
                    {
                        OFFSET -0.000000 0.000000 7.081605
                    }
                }
            }
        }
    }
}
MOTION
Frames:    4
Frame Time:    0.008333
-3.620138    155.227768    25.374249    5.437244    -0.940156    -56.555202    -0.654872    4.332932    -2.044169    -0.450342    0.639736    -0.688778    16.917732    3.675456    12.894756    -14.304702    1.496735    9.614961    9.892616    4.493065    -15.248821    -11.176116    -3.996099    -20.599503    15.155230    -2.662256    -52.144352    -1.167362    5.240563    -41.502007    -9.949264    -0.745620    -6.021693    28.701380    -23.784859    40.601200    7.599602    -20.531580    106.498535    13.948095    -26.398840    30.473215    32.416908    -30.001181    6.630286    -16.915920    26.362627    -6.679598    -23.252729    7.336104    45.631435    0.000000    0.000000    0.000000    -7.447004    -19.125004    -1.365605    7.446501    48.010937    -5.975981    0.784640    -26.997156    -9.408397    0.000000    0.000000    0.000000    
-3.368934    155.215530    25.398891    5.489528    -0.912991    -56.391850    -0.618927    4.310637    -2.080332    -0.489519    0.644516    -0.700022    16.948503    3.663104    12.857979    -14.328983    1.475732    9.565133    9.964725    4.480290    -15.276299    -11.189703    -4.019042    -20.620029    15.342790    -2.626660    -52.028610    -1.293057    5.400405    -41.721218    -9.922039    -0.777510    -6.045869    28.663633    -23.754829    40.564137    7.596892    -20.575773    106.456490    14.016024    -26.406691    30.534397    32.483524    -29.846806    6.497849    -16.755106    26.173954    -6.600944    -23.301264    7.455200    45.604275    0.000000    0.000000    0.000000    -7.536869    -19.246523    -1.386726    7.493991    48.055134    -6.040013    0.835123    -26.985382    -9.479320    0.000000    0.000000    0.000000    
-3.133333    155.193222    25.451988    5.504850    -0.899007    -56.231583    -0.579622    4.311776    -2.124427    -0.514365    0.669668    -0.714030    16.929796    3.609918    12.834031    -14.277651    1.497087    9.543369    9.987106    4.478760    -15.268269    -11.152742    -3.988950    -20.669796    15.306976    -2.720954    -52.010792    -1.123549    5.221733    -41.766254    -9.908019    -0.759732    -6.027284    28.638874    -23.782560    40.531883    7.574423    -20.630621    106.429314    14.100718    -26.403965    30.554178    32.549034    -29.651627    6.333119    -16.641165    25.970608    -6.615237    -23.423552    7.475729    45.871937    0.000000    0.000000    0.000000    -7.626261    -19.322515    -1.437118    7.527245    48.109066    -6.049899    0.880947    -26.981516    -9.577686    0.000000    0.000000    0.000000    
-2.894699    155.160004    25.528059    5.522463    -0.875836    -56.103283    -0.539402    4.273812    -2.134101    -0.530723    0.739230    -0.716202    16.931990    3.577730    12.805423    -14.274476    1.484258    9.507000    9.977833    4.458179    -15.274575    -11.089141    -3.972437    -20.729342    15.348382    -2.802103    -51.976254    -1.186939    5.177534    -41.584591    -9.908498    -0.721575    -6.021379    28.619755    -23.833220    40.532913    7.528391    -20.673214    106.378403    13.997995    -26.414494    30.483595    32.616417    -29.439795    6.193270    -16.508490    25.751760    -6.526462    -23.558199    7.572282    46.035542    0.000000    0.000000    0.000000    -7.716496    -19.413015    -1.459408    7.578917    48.172726    -6.092669    0.911158    -26.984385    -9.651710    0.000000    0.000000    0.000000    
